<svg height="512" viewBox="0 0 64 64" width="512" xmlns="http://www.w3.org/2000/svg"><g id="database"><path d="m20 36h-4a1 1 0 0 0 -1 1v4a1 1 0 0 0 1 1h4a1 1 0 0 0 1-1v-4a1 1 0 0 0 -1-1zm-1 4h-2v-2h2z"/><path d="m28 36h-4a1 1 0 0 0 -1 1v4a1 1 0 0 0 1 1h4a1 1 0 0 0 1-1v-4a1 1 0 0 0 -1-1zm-1 4h-2v-2h2z"/><path d="m31 36h14v2h-14z"/><path d="m47 36h2v2h-2z"/><path d="m31 40h14v2h-14z"/><path d="m47 40h2v2h-2z"/><path d="m16 58h4a1 1 0 0 0 1-1v-4a1 1 0 0 0 -1-1h-4a1 1 0 0 0 -1 1v4a1 1 0 0 0 1 1zm1-4h2v2h-2z"/><path d="m24 58h4a1 1 0 0 0 1-1v-4a1 1 0 0 0 -1-1h-4a1 1 0 0 0 -1 1v4a1 1 0 0 0 1 1zm1-4h2v2h-2z"/><path d="m31 52h14v2h-14z"/><path d="m47 52h2v2h-2z"/><path d="m31 56h14v2h-14z"/><path d="m47 56h2v2h-2z"/><path d="m61.16 29.01-3.96-.66a11.452 11.452 0 0 0 -.58-1.4l2.33-3.27a1 1 0 0 0 -.1-1.29l-4.24-4.24a1 1 0 0 0 -1.29-.1l-3.27 2.33a14.226 14.226 0 0 0 -1.4-.58l-.66-3.96a1 1 0 0 0 -.99-.84h-6a1 1 0 0 0 -.99.84l-.01.08v-7.92c0-3.94-9.56-6-19-6s-19 2.06-19 6v30c0 3.03 5.32 4.51 9.02 5.18a2.991 2.991 0 0 0 2.98 2.82h1v2h-1a3.009 3.009 0 0 0 -3 3v8a3.009 3.009 0 0 0 3 3h36a3.009 3.009 0 0 0 3-3v-8a3.009 3.009 0 0 0 -3-3h-1v-2h1a2.734 2.734 0 0 0 .5-.05l2.82 2.01a1.042 1.042 0 0 0 .58.18 1.024 1.024 0 0 0 .71-.29l4.24-4.24a1 1 0 0 0 .1-1.29l-2.33-3.27a11.452 11.452 0 0 0 .58-1.4l3.96-.66a1 1 0 0 0 .84-.99v-6a1 1 0 0 0 -.84-.99zm-21.16-1.72a6.959 6.959 0 0 1 10.95 4.88 3.012 3.012 0 0 0 -.95-.17h-10zm-19-23.29c11 0 17 2.64 17 4s-6 4-17 4-17-2.64-17-4 6-4 17-4zm-17 6.82c3.29 2.09 10.16 3.18 17 3.18s13.71-1.09 17-3.18v7.18c0 1.36-6 4-17 4s-17-2.64-17-4zm7 24.18v6.14c-5.07-.96-7-2.41-7-3.14v-7.18a21.482 21.482 0 0 0 7.56 2.44 2.985 2.985 0 0 0 -.56 1.74zm-7-7v-7.18c3.29 2.09 10.16 3.18 17 3.18s13.71-1.09 17-3.18v7.18c0 1.36-6 4-17 4s-17-2.64-17-4zm34 2.82v1.18h-2.48a12.469 12.469 0 0 0 2.48-1.18zm12 19.18a1 1 0 0 1 1 1v8a1 1 0 0 1 -1 1h-36a1 1 0 0 1 -1-1v-8a1 1 0 0 1 1-1zm-33-2v-2h4v2zm6 0v-2h18v2zm20 0v-2h4v2zm8-5a1 1 0 0 1 -1 1h-36a1 1 0 0 1 -1-1v-8a1 1 0 0 1 1-1h36a1 1 0 0 1 1 1zm9-7.85-3.72.62a1.025 1.025 0 0 0 -.8.7 11.81 11.81 0 0 1 -.9 2.2.976.976 0 0 0 .07 1.05l2.18 3.07-3.04 3.04-1.42-1.01a2.972 2.972 0 0 0 .63-1.82v-8a2.844 2.844 0 0 0 -.1-.72 9.317 9.317 0 0 0 .1-1.28 8.98 8.98 0 0 0 -13-8.05v-3.24a4.928 4.928 0 0 1 .54-.19 1.028 1.028 0 0 0 .69-.8l.62-3.72h4.3l.62 3.72a1.025 1.025 0 0 0 .7.8 12.1 12.1 0 0 1 2.2.9 1 1 0 0 0 1.05-.07l3.07-2.18 3.04 3.04-2.18 3.07a.976.976 0 0 0 -.07 1.05 11.81 11.81 0 0 1 .9 2.2 1.025 1.025 0 0 0 .8.7l3.72.62z"/><path d="m6 48h-2v8a1 1 0 0 0 1 1h4v-2h-3z"/><path d="m61 4h-16v2h15v9.586l-2.707 2.707 1.414 1.414 3-3a1 1 0 0 0 .293-.707v-11a1 1 0 0 0 -1-1z"/><path d="m41 4h2v2h-2z"/><path d="m4 44h2v2h-2z"/></g></svg>