<?xml version="1.0" encoding="utf-8"?>
<!-- Generator: Adobe Illustrator 22.0.0, SVG Export Plug-In . SVG Version: 6.00 Build 0)  -->
<svg version="1.1" id="Layer_1" xmlns="http://www.w3.org/2000/svg" xmlns:xlink="http://www.w3.org/1999/xlink" x="0px" y="0px"
	 viewBox="0 0 512 512" style="enable-background:new 0 0 512 512;" xml:space="preserve">
<style type="text/css">
	.st0{fill:#76C16C;}
</style>
<g id="database_server">
	<path class="st0" d="M350.6,160.1c-3.3-9.6-12.4-16.1-22.6-16.1h-8v-16h8c13.2,0,24-10.8,24-24V40c0-13.2-10.8-24-24-24H40
		c-13.2,0-24,10.8-24,24v64c0,13.2,10.8,24,24,24h8v16h-8c-13.2,0-24,10.8-24,24v64c0,13.2,10.8,24,24,24h8v16h-8
		c-13.2,0-24,10.8-24,24v64c0,13.2,10.8,24,24,24h152v64c0,31.5,76.5,48,152,48s152-16.5,152-48V208
		C496,177.4,423.9,161,350.6,160.1z M40,112c-4.4,0-8-3.6-8-8V40c0-4.4,3.6-8,8-8h288c4.4,0,8,3.6,8,8v64c0,4.4-3.6,8-8,8H40z
		 M304,128v16h-32v-16H304z M256,128v16H112v-16H256z M96,128v16H64v-16H96z M192,368H40c-4.4,0-8-3.6-8-8v-64c0-4.4,3.6-8,8-8h152
		V368z M64,272v-16h32v16H64z M192,272h-80v-16h80V272z M192,208v32H40c-4.4,0-8-3.6-8-8v-64c0-4.4,3.6-8,8-8h288
		c0.4,0,0.8,0.1,1.1,0.2C258.7,162.2,192,178.6,192,208z M480,448c0,10.9-48,32-136,32s-136-21.1-136-32v-57.4
		c26.3,16.7,81.3,25.4,136,25.4s109.7-8.7,136-25.4V448z M480,368c0,10.9-48,32-136,32s-136-21.1-136-32v-57.4
		c26.3,16.7,81.3,25.4,136,25.4s109.7-8.7,136-25.4V368z M480,288c0,10.9-48,32-136,32s-136-21.1-136-32v-57.4
		c26.3,16.7,81.3,25.4,136,25.4s109.7-8.7,136-25.4V288z M344,240c-88,0-136-21.1-136-32s48-32,136-32s136,21.1,136,32
		S432,240,344,240z"/>
	<path class="st0" d="M336,280h16v16h-16V280z"/>
	<path class="st0" d="M336,368h16v16h-16V368z"/>
	<path class="st0" d="M336,440h16v16h-16V440z"/>
	<path class="st0" d="M88,176H56c-4.4,0-8,3.6-8,8v32c0,4.4,3.6,8,8,8h32c4.4,0,8-3.6,8-8v-32C96,179.6,92.4,176,88,176z M80,208H64
		v-16h16V208z"/>
	<path class="st0" d="M152,176h-32c-4.4,0-8,3.6-8,8v32c0,4.4,3.6,8,8,8h32c4.4,0,8-3.6,8-8v-32C160,179.6,156.4,176,152,176z
		 M144,208h-16v-16h16V208z"/>
	<path class="st0" d="M88,48H56c-4.4,0-8,3.6-8,8v32c0,4.4,3.6,8,8,8h32c4.4,0,8-3.6,8-8V56C96,51.6,92.4,48,88,48z M80,80H64V64h16
		V80z"/>
	<path class="st0" d="M152,48h-32c-4.4,0-8,3.6-8,8v32c0,4.4,3.6,8,8,8h32c4.4,0,8-3.6,8-8V56C160,51.6,156.4,48,152,48z M144,80
		h-16V64h16V80z"/>
	<path class="st0" d="M176,48h112v16H176V48z"/>
	<path class="st0" d="M304,48h16v16h-16V48z"/>
	<path class="st0" d="M176,80h112v16H176V80z"/>
	<path class="st0" d="M304,80h16v16h-16V80z"/>
	<path class="st0" d="M88,304H56c-4.4,0-8,3.6-8,8v32c0,4.4,3.6,8,8,8h32c4.4,0,8-3.6,8-8v-32C96,307.6,92.4,304,88,304z M80,336H64
		v-16h16V336z"/>
	<path class="st0" d="M152,304h-32c-4.4,0-8,3.6-8,8v32c0,4.4,3.6,8,8,8h32c4.4,0,8-3.6,8-8v-32C160,307.6,156.4,304,152,304z
		 M144,336h-16v-16h16V336z"/>
</g>
</svg>
