<svg id="Camada_1" data-name="Camada 1" xmlns="http://www.w3.org/2000/svg" viewBox="0 0 611.05 33.77"><defs><style>.cls-1{fill:#71ab67;}.cls-2{fill:#444242;}</style></defs><title>codigo_verde</title><path class="cls-1" d="M5.65,266.21,1,263.88l2.2-4.75,2.79-1-2.21,4.75,4.68,2.33Z" transform="translate(-0.98 -233.05)"/><path class="cls-1" d="M15.48,256.3a4.18,4.18,0,0,1,1.87,2.47l1.77,5.08-2.2.77-1.68-4.83a2.47,2.47,0,0,0-1.1-1.43,2,2,0,0,0-1.67-.06,2.09,2.09,0,0,0-1.3,1.14,2.67,2.67,0,0,0,.05,2L12.84,266l-2.23.77L6.55,255.15l2.22-.77,1.63,4.68a3,3,0,0,1,.66-1.78,3.57,3.57,0,0,1,1.67-1.14A3.24,3.24,0,0,1,15.48,256.3Z" transform="translate(-0.98 -233.05)"/><path class="cls-1" d="M17.11,254.4l-.73-2.08,4-1.39,3.88,11.13-2.33.81-3.15-9.05Z" transform="translate(-0.98 -233.05)"/><path class="cls-1" d="M22.52,252.39l2.77-1L30,253.77l-2.22,4.73-2.77,1,2.2-4.73Z" transform="translate(-0.98 -233.05)"/><path class="cls-1" d="M71.49,245.57l-2.43-4.7,4.57-2.71,2.83.82-4.58,2.7,2.45,4.71Z" transform="translate(-0.98 -233.05)"/><path class="cls-1" d="M85.29,243a4.44,4.44,0,0,1,.08,3.18l-1.53,5.31-2.25-.64,1.46-5.05a2.52,2.52,0,0,0-.06-1.85,2,2,0,0,0-1.32-1,2,2,0,0,0-1.72.2,2.78,2.78,0,0,0-1.11,1.68l-1.4,4.85L75.18,249l3.51-12.21,2.27.65-1.42,4.9a3.15,3.15,0,0,1,1.58-1.11,3.56,3.56,0,0,1,2,0A3.2,3.2,0,0,1,85.29,243Z" transform="translate(-0.98 -233.05)"/><path class="cls-1" d="M87.72,242.35l.63-2.18,4.07,1.18L89.07,253l-2.38-.68,2.73-9.47Z" transform="translate(-0.98 -233.05)"/><path class="cls-1" d="M93.3,243.83l2.82.82,2.45,4.72L94,252.05l-2.82-.81,4.56-2.69Z" transform="translate(-0.98 -233.05)"/><path class="cls-1" d="M141.46,256.25l-4.6-2.62,2.36-4.76,2.83-.85-2.38,4.75,4.62,2.62Z" transform="translate(-0.98 -233.05)"/><path class="cls-1" d="M151.64,246.58a4.44,4.44,0,0,1,1.79,2.63L155,254.5l-2.24.68-1.52-5a2.52,2.52,0,0,0-1.06-1.52,2,2,0,0,0-1.66-.15,2.07,2.07,0,0,0-1.34,1.11,2.75,2.75,0,0,0,0,2l1.46,4.83-2.25.68L142.73,245l2.25-.68,1.48,4.88a3,3,0,0,1,.72-1.79,3.47,3.47,0,0,1,1.7-1.08A3.22,3.22,0,0,1,151.64,246.58Z" transform="translate(-0.98 -233.05)"/><path class="cls-1" d="M153.33,244.72l-.66-2.16,4.06-1.23,3.51,11.59-2.36.72L155,244.21Z" transform="translate(-0.98 -233.05)"/><path class="cls-1" d="M158.82,242.93l2.81-.85,4.62,2.64-2.38,4.74-2.82.85,2.37-4.74Z" transform="translate(-0.98 -233.05)"/><path class="cls-2" d="M37.59,249.56l-4.71-2.24L35,242.53l2.77-1-2.13,4.79,4.73,2.24Z" transform="translate(-0.98 -233.05)"/><path class="cls-2" d="M47.23,239.46a4.25,4.25,0,0,1,1.92,2.44l1.87,5-2.2.82L47.05,243a2.41,2.41,0,0,0-1.12-1.41,2.05,2.05,0,0,0-1.67,0A2.13,2.13,0,0,0,43,242.69a2.69,2.69,0,0,0,.09,2l1.7,4.6-2.21.82-4.28-11.58,2.21-.82,1.72,4.65a2.94,2.94,0,0,1,.62-1.79,3.74,3.74,0,0,1,1.64-1.17A3.3,3.3,0,0,1,47.23,239.46Z" transform="translate(-0.98 -233.05)"/><path class="cls-2" d="M54.94,236.58a1.88,1.88,0,0,0-.78-1,1.45,1.45,0,0,0-1.26,0c-1,.38-1.32,1.29-.86,2.72l-2.15.79a4.36,4.36,0,0,1,.1-3.41,4.19,4.19,0,0,1,2.39-2,3.89,3.89,0,0,1,2.95-.09,3.35,3.35,0,0,1,1.79,2,5,5,0,0,1,.18,2.58,10.15,10.15,0,0,1-.94,2.78,15,15,0,0,1-1.58,2.5l4.83-1.79.67,1.8-7.78,2.88-.61-1.64Q55.84,239,54.94,236.58Z" transform="translate(-0.98 -233.05)"/><path class="cls-2" d="M57.89,234.06l2.75-1,4.73,2.25-2.13,4.77-2.75,1,2.11-4.77Z" transform="translate(-0.98 -233.05)"/><path class="cls-1" d="M274,248.84l-2.43-4.7,4.57-2.71,2.84.82-4.58,2.7,2.44,4.71Z" transform="translate(-0.98 -233.05)"/><path class="cls-1" d="M287.77,246.26a4.45,4.45,0,0,1,.07,3.18l-1.53,5.31-2.24-.64,1.45-5.05a2.52,2.52,0,0,0-.06-1.85,2,2,0,0,0-1.32-1,2,2,0,0,0-1.72.2,2.78,2.78,0,0,0-1.11,1.68l-1.4,4.85-2.26-.65,3.52-12.2,2.26.65L282,245.6a3,3,0,0,1,1.58-1.1,3.45,3.45,0,0,1,2,0A3.21,3.21,0,0,1,287.77,246.26Z" transform="translate(-0.98 -233.05)"/><path class="cls-1" d="M290.19,245.62l.63-2.18,4.07,1.18-3.35,11.64-2.38-.68,2.73-9.47Z" transform="translate(-0.98 -233.05)"/><path class="cls-1" d="M295.77,247.1l2.83.82,2.44,4.72-4.58,2.68-2.82-.81,4.56-2.69Z" transform="translate(-0.98 -233.05)"/><path class="cls-2" d="M240.06,252.83l-4.71-2.24,2.11-4.78,2.77-1-2.12,4.79,4.72,2.24Z" transform="translate(-0.98 -233.05)"/><path class="cls-2" d="M249.71,242.74a4.2,4.2,0,0,1,1.91,2.44l1.87,5-2.19.81-1.77-4.79a2.43,2.43,0,0,0-1.13-1.41,2,2,0,0,0-1.67,0,2.07,2.07,0,0,0-1.27,1.16,2.64,2.64,0,0,0,.08,2l1.7,4.61-2.2.81-4.29-11.58,2.21-.82,1.72,4.65a2.91,2.91,0,0,1,.63-1.79,3.54,3.54,0,0,1,1.64-1.16A3.23,3.23,0,0,1,249.71,242.74Z" transform="translate(-0.98 -233.05)"/><path class="cls-2" d="M257.41,239.85a1.88,1.88,0,0,0-.78-1,1.45,1.45,0,0,0-1.26,0c-1,.38-1.32,1.29-.86,2.72l-2.14.79a4.38,4.38,0,0,1,.09-3.4,4.16,4.16,0,0,1,2.4-2,3.81,3.81,0,0,1,2.94-.08,3.3,3.3,0,0,1,1.79,2,4.82,4.82,0,0,1,.18,2.58,10,10,0,0,1-.94,2.78,13.77,13.77,0,0,1-1.58,2.5l4.84-1.79.66,1.8L255,249.56l-.61-1.64Q258.31,242.28,257.41,239.85Z" transform="translate(-0.98 -233.05)"/><path class="cls-2" d="M260.36,237.34l2.76-1,4.73,2.25-2.13,4.78-2.76,1,2.12-4.76Z" transform="translate(-0.98 -233.05)"/><path class="cls-2" d="M171.93,246.5l-2.45-4.61L174,239.3l2.84.83-4.56,2.58,2.46,4.61Z" transform="translate(-0.98 -233.05)"/><path class="cls-2" d="M185.69,244.12a4.31,4.31,0,0,1,.09,3.11l-1.5,5.16-2.25-.66,1.43-4.9a2.43,2.43,0,0,0-.07-1.8,2,2,0,0,0-1.32-1,2,2,0,0,0-1.72.18,2.65,2.65,0,0,0-1.1,1.63l-1.37,4.71-2.26-.66L179.07,238l2.26.66L180,243.43a3,3,0,0,1,1.57-1.07,3.63,3.63,0,0,1,2,0A3.28,3.28,0,0,1,185.69,244.12Z" transform="translate(-0.98 -233.05)"/><path class="cls-2" d="M193.6,246.39a1.88,1.88,0,0,0,0-1.29,1.43,1.43,0,0,0-1-.76c-1.06-.31-1.83.25-2.31,1.67l-2.2-.64a4.39,4.39,0,0,1,2.1-2.68,4.22,4.22,0,0,1,3.14-.21,3.87,3.87,0,0,1,2.42,1.69,3.33,3.33,0,0,1,.24,2.68,5,5,0,0,1-1.39,2.18,10.18,10.18,0,0,1-2.41,1.68,14.42,14.42,0,0,1-2.76,1.07l5,1.44-.54,1.84-8-2.32.49-1.68C190.7,249.6,193.12,248.05,193.6,246.39Z" transform="translate(-0.98 -233.05)"/><path class="cls-2" d="M197.46,246.12l2.82.83,2.46,4.62-4.55,2.57-2.82-.82,4.54-2.57Z" transform="translate(-0.98 -233.05)"/><path class="cls-2" d="M105.66,263.87,102,260.13l3.64-3.75h3L105,260.13l3.65,3.74Z" transform="translate(-0.98 -233.05)"/><path class="cls-2" d="M118.21,257.75a4.25,4.25,0,0,1,1,2.95v5.37h-2.34V261a2.39,2.39,0,0,0-.57-1.71,2,2,0,0,0-1.55-.61,2,2,0,0,0-1.6.65,2.66,2.66,0,0,0-.6,1.87v4.9h-2.35V253.72h2.35v5a2.94,2.94,0,0,1,1.21-1.46,3.59,3.59,0,0,1,1.94-.52A3.3,3.3,0,0,1,118.21,257.75Z" transform="translate(-0.98 -233.05)"/><path class="cls-2" d="M126.43,257.71a1.86,1.86,0,0,0-.37-1.23,1.45,1.45,0,0,0-1.18-.45c-1.1,0-1.68.75-1.75,2.25h-2.29a4.4,4.4,0,0,1,1.27-3.16,4.18,4.18,0,0,1,3-1.08,3.89,3.89,0,0,1,2.79.94,3.35,3.35,0,0,1,1,2.52,4.79,4.79,0,0,1-.73,2.47,10,10,0,0,1-1.84,2.29,14.12,14.12,0,0,1-2.36,1.79h5.16V266h-8.29v-1.75Q126.44,260.31,126.43,257.71Z" transform="translate(-0.98 -233.05)"/><path class="cls-2" d="M130.07,256.38H133l3.65,3.75L133,263.87h-2.94l3.64-3.74Z" transform="translate(-0.98 -233.05)"/><path class="cls-1" d="M550.75,256.25l-4.6-2.62,2.36-4.76,2.83-.85L549,252.77l4.62,2.62Z" transform="translate(-0.98 -233.05)"/><path class="cls-1" d="M560.93,246.58a4.45,4.45,0,0,1,1.8,2.63l1.6,5.29-2.24.68-1.52-5a2.55,2.55,0,0,0-1.05-1.52,2,2,0,0,0-1.67-.15,2.07,2.07,0,0,0-1.34,1.11,2.8,2.8,0,0,0,0,2l1.47,4.83-2.26.68L552,245l2.25-.68,1.48,4.88a3,3,0,0,1,.72-1.79,3.5,3.5,0,0,1,1.71-1.08A3.2,3.2,0,0,1,560.93,246.58Z" transform="translate(-0.98 -233.05)"/><path class="cls-1" d="M562.62,244.72l-.66-2.16,4.06-1.23,3.52,11.59-2.37.72-2.86-9.43Z" transform="translate(-0.98 -233.05)"/><path class="cls-1" d="M568.11,242.93l2.81-.85,4.62,2.64-2.38,4.74-2.81.85,2.36-4.74Z" transform="translate(-0.98 -233.05)"/><path class="cls-2" d="M581.22,246.5l-2.45-4.61,4.54-2.59,2.84.83-4.56,2.58,2.47,4.61Z" transform="translate(-0.98 -233.05)"/><path class="cls-2" d="M595,244.12a4.31,4.31,0,0,1,.09,3.11l-1.5,5.16-2.25-.66,1.43-4.9a2.39,2.39,0,0,0-.07-1.8,2,2,0,0,0-1.32-1,2,2,0,0,0-1.72.18,2.69,2.69,0,0,0-1.1,1.63l-1.37,4.71-2.26-.66L588.36,238l2.26.66-1.38,4.76a3,3,0,0,1,1.57-1.07,3.63,3.63,0,0,1,2,0A3.26,3.26,0,0,1,595,244.12Z" transform="translate(-0.98 -233.05)"/><path class="cls-2" d="M602.89,246.39a1.83,1.83,0,0,0,0-1.29,1.43,1.43,0,0,0-1-.76c-1.06-.31-1.83.25-2.31,1.67l-2.2-.64a4.46,4.46,0,0,1,2.1-2.68,4.22,4.22,0,0,1,3.14-.21,3.84,3.84,0,0,1,2.42,1.69,3.33,3.33,0,0,1,.24,2.68,5,5,0,0,1-1.39,2.18,10.18,10.18,0,0,1-2.41,1.68,14.42,14.42,0,0,1-2.76,1.07l4.95,1.44-.54,1.84-8-2.32.49-1.68C600,249.6,602.41,248.05,602.89,246.39Z" transform="translate(-0.98 -233.05)"/><path class="cls-2" d="M606.76,246.12l2.82.83,2.46,4.62-4.56,2.57-2.82-.82,4.54-2.57Z" transform="translate(-0.98 -233.05)"/><path class="cls-2" d="M515,263.87l-3.64-3.74,3.64-3.75h2.95l-3.65,3.75,3.65,3.74Z" transform="translate(-0.98 -233.05)"/><path class="cls-2" d="M527.5,257.75a4.25,4.25,0,0,1,1,2.95v5.37h-2.34V261a2.43,2.43,0,0,0-.56-1.71,2,2,0,0,0-1.56-.61,2.06,2.06,0,0,0-1.6.65,2.66,2.66,0,0,0-.6,1.87v4.9h-2.35V253.72h2.35v5a3,3,0,0,1,1.21-1.46,3.6,3.6,0,0,1,2-.52A3.27,3.27,0,0,1,527.5,257.75Z" transform="translate(-0.98 -233.05)"/><path class="cls-2" d="M535.73,257.71a1.86,1.86,0,0,0-.38-1.23,1.45,1.45,0,0,0-1.18-.45c-1.1,0-1.68.75-1.75,2.25h-2.28a4.4,4.4,0,0,1,1.26-3.16,4.2,4.2,0,0,1,3-1.08,3.89,3.89,0,0,1,2.79.94,3.35,3.35,0,0,1,1,2.52,4.79,4.79,0,0,1-.73,2.47,9.7,9.7,0,0,1-1.84,2.29,14.47,14.47,0,0,1-2.35,1.79h5.15V266h-8.29v-1.75Q535.73,260.31,535.73,257.71Z" transform="translate(-0.98 -233.05)"/><path class="cls-2" d="M539.36,256.38h2.94l3.66,3.75-3.66,3.74h-2.94l3.64-3.74Z" transform="translate(-0.98 -233.05)"/><path class="cls-1" d="M344.94,256.25l-4.6-2.62,2.36-4.76,2.83-.85-2.38,4.75,4.61,2.62Z" transform="translate(-0.98 -233.05)"/><path class="cls-1" d="M355.12,246.58a4.48,4.48,0,0,1,1.79,2.63l1.6,5.29-2.23.68-1.53-5a2.55,2.55,0,0,0-1.05-1.52,2,2,0,0,0-1.67-.15,2.09,2.09,0,0,0-1.34,1.11,2.76,2.76,0,0,0,0,2l1.46,4.83-2.25.68L346.2,245l2.26-.68,1.47,4.88a3,3,0,0,1,.73-1.79,3.47,3.47,0,0,1,1.7-1.08A3.22,3.22,0,0,1,355.12,246.58Z" transform="translate(-0.98 -233.05)"/><path class="cls-1" d="M356.8,244.72l-.65-2.16,4.05-1.23,3.52,11.59-2.36.72-2.86-9.43Z" transform="translate(-0.98 -233.05)"/><path class="cls-1" d="M362.3,242.93l2.81-.85,4.61,2.64-2.38,4.74-2.81.85,2.37-4.74Z" transform="translate(-0.98 -233.05)"/><path class="cls-2" d="M375.4,246.5,373,241.89l4.55-2.59,2.83.83-4.55,2.58,2.46,4.61Z" transform="translate(-0.98 -233.05)"/><path class="cls-2" d="M389.16,244.12a4.2,4.2,0,0,1,.09,3.11l-1.5,5.16-2.24-.66,1.43-4.9a2.43,2.43,0,0,0-.07-1.8,2,2,0,0,0-1.32-1,2,2,0,0,0-1.72.18,2.65,2.65,0,0,0-1.1,1.63l-1.37,4.71-2.26-.66L382.55,238l2.26.66-1.39,4.76a3,3,0,0,1,1.57-1.07,3.66,3.66,0,0,1,2,0A3.27,3.27,0,0,1,389.16,244.12Z" transform="translate(-0.98 -233.05)"/><path class="cls-2" d="M397.07,246.39a1.83,1.83,0,0,0,0-1.29,1.45,1.45,0,0,0-1-.76c-1.05-.31-1.82.25-2.31,1.67l-2.19-.64a4.39,4.39,0,0,1,2.1-2.68,4.22,4.22,0,0,1,3.14-.21,3.87,3.87,0,0,1,2.42,1.69,3.33,3.33,0,0,1,.23,2.68,4.86,4.86,0,0,1-1.39,2.18,10,10,0,0,1-2.41,1.68,14.42,14.42,0,0,1-2.76,1.07l4.95,1.44-.53,1.84-8-2.32.49-1.68C394.18,249.6,396.59,248.05,397.07,246.39Z" transform="translate(-0.98 -233.05)"/><path class="cls-2" d="M400.94,246.12l2.82.83,2.46,4.62-4.55,2.57-2.82-.82,4.53-2.57Z" transform="translate(-0.98 -233.05)"/><path class="cls-2" d="M309.13,263.87l-3.63-3.74,3.63-3.75h3l-3.66,3.75,3.66,3.74Z" transform="translate(-0.98 -233.05)"/><path class="cls-2" d="M321.68,257.75a4.21,4.21,0,0,1,1,2.95v5.37H320.3V261a2.39,2.39,0,0,0-.57-1.71,2,2,0,0,0-1.55-.61,2,2,0,0,0-1.6.65,2.66,2.66,0,0,0-.6,1.87v4.9h-2.36V253.72H316v5a2.89,2.89,0,0,1,1.21-1.46,3.59,3.59,0,0,1,1.94-.52A3.26,3.26,0,0,1,321.68,257.75Z" transform="translate(-0.98 -233.05)"/><path class="cls-2" d="M329.91,257.71a1.86,1.86,0,0,0-.37-1.23,1.46,1.46,0,0,0-1.18-.45c-1.1,0-1.69.75-1.75,2.25h-2.29a4.4,4.4,0,0,1,1.27-3.16,4.18,4.18,0,0,1,3-1.08,3.9,3.9,0,0,1,2.8.94,3.34,3.34,0,0,1,1,2.52,4.87,4.87,0,0,1-.72,2.47,10,10,0,0,1-1.85,2.29,14,14,0,0,1-2.35,1.79h5.16V266h-8.3v-1.75Q329.92,260.31,329.91,257.71Z" transform="translate(-0.98 -233.05)"/><path class="cls-2" d="M333.55,256.38h2.94l3.65,3.75-3.65,3.74h-2.94l3.64-3.74Z" transform="translate(-0.98 -233.05)"/><path class="cls-1" d="M208.28,264.57l-3.64-3.74,3.64-3.76h3l-3.66,3.76,3.66,3.74Z" transform="translate(-0.98 -233.05)"/><path class="cls-1" d="M220.83,258.44a4.22,4.22,0,0,1,.95,2.95v5.38h-2.33v-5.11a2.42,2.42,0,0,0-.57-1.71,2,2,0,0,0-1.55-.61,2.08,2.08,0,0,0-1.6.65,2.68,2.68,0,0,0-.6,1.87v4.91h-2.36V254.42h2.36v5a2.85,2.85,0,0,1,1.21-1.46,3.51,3.51,0,0,1,1.94-.53A3.26,3.26,0,0,1,220.83,258.44Z" transform="translate(-0.98 -233.05)"/><path class="cls-1" d="M223,257.19V255h4.23v11.78h-2.47v-9.58Z" transform="translate(-0.98 -233.05)"/><path class="cls-1" d="M228.76,257.07h2.94l3.65,3.76-3.65,3.74h-2.94l3.64-3.74Z" transform="translate(-0.98 -233.05)"/><path class="cls-1" d="M479.47,248.84l-2.43-4.7,4.56-2.71,2.84.82-4.58,2.7,2.45,4.71Z" transform="translate(-0.98 -233.05)"/><path class="cls-1" d="M493.27,246.26a4.44,4.44,0,0,1,.08,3.18l-1.54,5.31-2.24-.64,1.45-5.05a2.58,2.58,0,0,0,0-1.85,2,2,0,0,0-1.32-1,2.07,2.07,0,0,0-1.73.2,2.78,2.78,0,0,0-1.11,1.68l-1.39,4.85-2.26-.65,3.51-12.2,2.26.65-1.41,4.89a3,3,0,0,1,1.58-1.1,3.48,3.48,0,0,1,2,0A3.21,3.21,0,0,1,493.27,246.26Z" transform="translate(-0.98 -233.05)"/><path class="cls-1" d="M495.7,245.62l.62-2.18,4.08,1.18L497,256.26l-2.37-.68,2.73-9.47Z" transform="translate(-0.98 -233.05)"/><path class="cls-1" d="M501.28,247.1l2.82.82,2.44,4.72L502,255.32l-2.83-.81,4.57-2.69Z" transform="translate(-0.98 -233.05)"/><path class="cls-2" d="M445.57,252.83l-4.71-2.24,2.11-4.78,2.77-1-2.13,4.79,4.73,2.24Z" transform="translate(-0.98 -233.05)"/><path class="cls-2" d="M455.21,242.74a4.22,4.22,0,0,1,1.92,2.44l1.86,5-2.19.81L455,246.24a2.39,2.39,0,0,0-1.13-1.41,2,2,0,0,0-1.66,0A2.09,2.09,0,0,0,451,246a2.64,2.64,0,0,0,.09,2l1.7,4.61-2.21.81-4.28-11.58,2.2-.82,1.72,4.65a3,3,0,0,1,.63-1.79,3.59,3.59,0,0,1,1.64-1.16A3.23,3.23,0,0,1,455.21,242.74Z" transform="translate(-0.98 -233.05)"/><path class="cls-2" d="M462.92,239.85a1.88,1.88,0,0,0-.78-1,1.45,1.45,0,0,0-1.26,0c-1,.38-1.32,1.29-.87,2.72l-2.14.79a4.38,4.38,0,0,1,.09-3.4,4.16,4.16,0,0,1,2.4-2,3.84,3.84,0,0,1,2.95-.08,3.33,3.33,0,0,1,1.79,2,4.92,4.92,0,0,1,.17,2.58,9.69,9.69,0,0,1-.93,2.78,14.38,14.38,0,0,1-1.59,2.5l4.84-1.79.67,1.8-7.78,2.88-.61-1.64Q463.82,242.28,462.92,239.85Z" transform="translate(-0.98 -233.05)"/><path class="cls-2" d="M465.87,237.34l2.75-1,4.73,2.25-2.13,4.78-2.75,1,2.11-4.76Z" transform="translate(-0.98 -233.05)"/><path class="cls-1" d="M413.79,264.57l-3.64-3.74,3.64-3.76h2.95l-3.65,3.76,3.65,3.74Z" transform="translate(-0.98 -233.05)"/><path class="cls-1" d="M426.34,258.44a4.27,4.27,0,0,1,1,2.95v5.38H425v-5.11a2.42,2.42,0,0,0-.57-1.71,2,2,0,0,0-1.55-.61,2.09,2.09,0,0,0-1.6.65,2.68,2.68,0,0,0-.6,1.87v4.91h-2.35V254.42h2.35v5a2.9,2.9,0,0,1,1.21-1.46,3.51,3.51,0,0,1,1.94-.53A3.3,3.3,0,0,1,426.34,258.44Z" transform="translate(-0.98 -233.05)"/><path class="cls-1" d="M428.49,257.19V255h4.24v11.78h-2.47v-9.58Z" transform="translate(-0.98 -233.05)"/><path class="cls-1" d="M434.26,257.07h2.94l3.66,3.76-3.66,3.74h-2.94l3.64-3.74Z" transform="translate(-0.98 -233.05)"/></svg>