<?xml version="1.0" encoding="utf-8"?>
<!-- Generator: Adobe Illustrator 22.0.0, SVG Export Plug-In . SVG Version: 6.00 Build 0)  -->
<svg version="1.1" id="Layer_1" xmlns="http://www.w3.org/2000/svg" xmlns:xlink="http://www.w3.org/1999/xlink" x="0px" y="0px"
	 viewBox="0 0 1590.2 1738.9" style="enable-background:new 0 0 1590.2 1738.9;" xml:space="preserve">
<style type="text/css">
	.st0{fill:none;}
	.st1{fill:#2062AF;}
	.st2{fill:#3C9CD7;}
	.st3{fill:#FFFFFF;}
	.st4{fill:url(#SVGID_1_);}
	.st5{fill:url(#SVGID_2_);}
	.st6{fill:url(#SVGID_3_);}
	.st7{opacity:5.000000e-02;enable-background:new    ;}
	.st8{fill:url(#SVGID_4_);}
</style>
<path class="st0" d="M-461.8-587.2h2500v2500h-2500V-587.2z"/>
<path class="st1" d="M1420.4,1582.6l-632.3,170.2l-632.3-170.2L10,2h1556.3L1420.4,1582.6z"/>
<path class="st2" d="M788.2,130v1487.1l1.4,0.4l511.7-137.8L1419.4,130L788.2,130L788.2,130z"/>
<path class="st3" d="M787.6,525.3L335.1,713.7l15,186.6l437.5-187.1l465.4-199l19.3-190.9L787.6,525.3L787.6,525.3z"/>
<linearGradient id="SVGID_1_" gradientUnits="userSpaceOnUse" x1="-842.4794" y1="-478.049" x2="-842.4794" y2="-558.85" gradientTransform="matrix(4.6418 0 0 4.6418 4471.957 3119.3276)">
	<stop  offset="0.387" style="stop-color:#D1D3D4;stop-opacity:0"/>
	<stop  offset="1" style="stop-color:#D1D3D4"/>
</linearGradient>
<path class="st4" d="M335.1,713.7l15,186.6l437.5-187.1v-188L335.1,713.7z"/>
<linearGradient id="SVGID_2_" gradientUnits="userSpaceOnUse" x1="-741.5224" y1="-518.35" x2="-741.5224" y2="-602.3391" gradientTransform="matrix(4.6418 0 0 4.6418 4471.957 3119.3276)">
	<stop  offset="0.387" style="stop-color:#D1D3D4;stop-opacity:0"/>
	<stop  offset="1" style="stop-color:#D1D3D4"/>
</linearGradient>
<path class="st5" d="M1272.3,323.4L787.6,525.3v188l465.4-199L1272.3,323.4z"/>
<linearGradient id="SVGID_3_" gradientUnits="userSpaceOnUse" x1="-891.0744" y1="-442.011" x2="-697.0094" y2="-442.011" gradientTransform="matrix(4.6418 0 0 4.6418 4471.957 3119.3276)">
	<stop  offset="0" style="stop-color:#E8E7E5"/>
	<stop  offset="1" style="stop-color:#FFFFFF"/>
</linearGradient>
<path class="st6" d="M335.8,713.7l15,186.6l671.3,2.1l-15,248.8l-220.9,62.2l-212.4-53.6L561,1005.4H363.6l25.7,298.1l398.9,118
	l396.8-115.8l51.5-591.9H335.8z"/>
<path class="st7" d="M787.6,713.7H335.1l15,186.6l437.5,1.4L787.6,713.7L787.6,713.7z M787.6,1212.8l-2.1,0.6l-212.3-53.6
	l-12.9-154.4H363l25.7,298.1l398.9,118V1212.8z"/>
<linearGradient id="SVGID_4_" gradientUnits="userSpaceOnUse" x1="-900.0034" y1="-581.7781" x2="-689.3114" y2="-581.7781" gradientTransform="matrix(4.6418 0 0 4.6418 4471.957 3119.3276)">
	<stop  offset="0" style="stop-color:#E8E7E5"/>
	<stop  offset="1" style="stop-color:#FFFFFF"/>
</linearGradient>
<path class="st8" d="M294.3,323.4h978L1253,514.3H317.9L294.3,323.4L294.3,323.4z"/>
<path class="st7" d="M787.6,323.4H294.3l23.6,190.9h469.7L787.6,323.4L787.6,323.4z"/>
</svg>
