<?xml version="1.0" encoding="utf-8"?>
<!-- Generator: Adobe Illustrator 22.0.0, SVG Export Plug-In . SVG Version: 6.00 Build 0)  -->
<svg version="1.1" id="Layer_1" xmlns="http://www.w3.org/2000/svg" xmlns:xlink="http://www.w3.org/1999/xlink" x="0px" y="0px"
	 viewBox="0 0 1776 2020" style="enable-background:new 0 0 1776 2020;" xml:space="preserve">
<style type="text/css">
	.st0{fill:#E6A329;}
	.st1{fill:#F1BF22;}
	.st2{fill:#FFFFFF;}
	.st3{fill:#EBEBEB;}
</style>
<path class="st0" d="M1776,9.9H0l166.5,1805.5L887.9,2020l721.4-204.6L1776,9.9z"/>
<path class="st1" d="M887.9,157v1710l584.5-165.6L1614.6,157L887.9,157z"/>
<path class="st2" d="M1352.9,378.5H454.2l-62.6,676l1.3-4.2h763.5l-24.9,286l-243.6,70.1l-247.2-71.2l-14.8-173.1H401.5l32,345.9
	l454.4,129l454.6-129l62.6-678.9H594.8l10.4-226.2h562.2l8.4,129.6h226.4L1352.9,378.5z"/>
<path class="st3" d="M888.1,378.5H454.2l-62.6,676l1.3-4.2h495.2V829.8H626.4l10.4-226.2h251.3V378.5z M626.4,1162.1H401.5l32,345.7
	l454.4,128.8v-230l-247.2-71.4L626.4,1162.1z"/>
</svg>
