<?xml version="1.0" encoding="utf-8"?>
<!-- Generator: Adobe Illustrator 22.0.0, SVG Export Plug-In . SVG Version: 6.00 Build 0)  -->
<svg version="1.1" id="Layer_1" xmlns="http://www.w3.org/2000/svg" xmlns:xlink="http://www.w3.org/1999/xlink" x="0px" y="0px"
	 viewBox="0 0 2133.9 1327" style="enable-background:new 0 0 2133.9 1327;" xml:space="preserve">
<style type="text/css">
	.st0{fill:#689F63;}
	.st1{fill:#333333;}
	.st2{fill:url(#SVGID_1_);}
	.st3{fill:url(#SVGID_2_);}
	.st4{fill:url(#SVGID_3_);}
</style>
<path class="st0" d="M1054.9,1308.9c-7,0-13.9-1.8-20-5.3l-63.6-37.7c-9.5-5.3-4.9-7.2-1.7-8.3c12.7-4.4,15.2-5.4,28.8-13.1
	c1.4-0.8,3.3-0.5,4.7,0.3l48.9,29c1.8,1,4.3,1,5.9,0l190.6-110c1.8-1,2.9-3.1,2.9-5.2V938.8c0-2.2-1.1-4.2-2.9-5.2l-190.5-109.9
	c-1.8-1-4.1-1-5.9,0L861.5,933.5c-1.8,1-3,3.1-3,5.2v219.9c0,2.1,1.1,4.1,3,5.1l52.2,30.1c28.3,14.2,45.7-2.5,45.7-19.3v-217
	c0-3.1,2.4-5.5,5.5-5.5H989c3,0,5.5,2.4,5.5,5.5v217.1c0,37.8-20.6,59.5-56.4,59.5c-11,0-19.7,0-43.9-11.9l-50-28.8
	c-12.4-7.2-20-20.5-20-34.8V938.7c0-14.3,7.6-27.7,20-34.7l190.8-110.1c12.1-6.8,28.1-6.8,40.1,0L1265.4,904
	c12.4,7.2,20,20.4,20,34.7v219.9c0,14.3-7.7,27.6-20,34.7l-190.5,110.1C1068.8,1307,1061.9,1308.8,1054.9,1308.9"/>
<path class="st0" d="M1113.7,1157.4c-83.4,0-100.9-38.3-100.9-70.4c0-3.1,2.5-5.5,5.5-5.5h24.6c2.7,0,5,2,5.4,4.7
	c3.7,25.1,14.8,37.7,65.2,37.7c40.2,0,57.2-9.1,57.2-30.4c0-12.3-4.9-21.4-67.3-27.5c-52.2-5.2-84.4-16.6-84.4-58.4
	c0-38.4,32.4-61.3,86.8-61.3c61,0,91.3,21.2,95.1,66.7c0.3,3.1-2,5.7-5.1,6c-0.2,0-0.3,0-0.5,0h-24.8c-2.6,0-4.8-1.8-5.3-4.3
	c-6-26.4-20.4-34.8-59.5-34.8c-43.8,0-48.9,15.3-48.9,26.7c0,13.9,6,17.9,65.2,25.8c58.6,7.8,86.4,18.7,86.4,59.9
	c0,41.5-34.6,65.3-95,65.3 M1345.6,924.4h6.4c5.2,0,6.2-3.7,6.2-5.8c0-5.6-3.9-5.6-6-5.6h-6.6L1345.6,924.4z M1337.8,906.3h14.2
	c4.9,0,14.4,0,14.4,10.9c0,7.6-4.9,9.2-7.8,10.1c5.7,0.4,6.1,4.1,6.8,9.3c0.4,3.3,1,9,2.1,10.9h-8.7c-0.2-1.9-1.6-12.4-1.6-13
	c-0.6-2.3-1.4-3.5-4.3-3.5h-7.2v16.5h-8V906.3z M1320.8,926.9c0,17.1,13.8,30.9,30.7,30.9c17.1,0,30.9-14.1,30.9-30.9
	c0-17.1-14-30.7-30.9-30.7C1334.7,896.1,1320.7,909.5,1320.8,926.9 M1388.3,927c0,20.2-16.6,36.7-36.7,36.7
	c-20,0-36.7-16.3-36.7-36.7c0-20.8,17.1-36.7,36.7-36.7C1371.3,890.2,1388.2,906.2,1388.3,927"/>
<path class="st1" d="M464.7,448.4c0-8.8-4.6-16.8-12.2-21.2L250.5,311c-3.4-2-7.2-3.1-11.1-3.2h-2.1c-3.9,0.1-7.7,1.2-11.2,3.2
	l-202,116.3c-7.6,4.4-12.2,12.5-12.2,21.2l0.4,313.1c0,4.3,2.2,8.4,6.1,10.5c3.7,2.3,8.4,2.3,12.1,0l120.1-68.8
	c7.6-4.5,12.2-12.5,12.2-21.2V535.9c0-8.7,4.6-16.8,12.2-21.1l51.1-29.5c3.7-2.2,7.9-3.3,12.2-3.3c4.2,0,8.4,1.1,12.1,3.3l51.1,29.4
	c7.6,4.3,12.2,12.4,12.2,21.1v146.3c0,8.7,4.7,16.7,12.2,21.2l120,68.7c3.8,2.2,8.5,2.2,12.2,0c3.7-2.2,6-6.2,6-10.5L464.7,448.4z
	 M1418.1,611.5c0,2.2-1.2,4.2-3.1,5.3l-69.4,40c-1.9,1.1-4.2,1.1-6.1,0l-69.4-40c-1.9-1.1-3.1-3.1-3.1-5.3v-80.1
	c0-2.2,1.1-4.2,3-5.3l69.4-40.1c1.9-1.1,4.2-1.1,6.2,0l69.4,40.1c1.9,1.1,3.1,3.1,3.1,5.3L1418.1,611.5z M1436.9,18
	c-3.8-2.1-8.4-2.1-12.1,0.1c-3.7,2.2-6,6.2-6,10.5v310.1c0,4.7-3.8,8.5-8.5,8.5c-1.5,0-3-0.4-4.3-1.1l-50.6-29.2
	c-7.5-4.4-16.8-4.4-24.4,0l-202.1,116.6c-7.5,4.3-12.2,12.4-12.2,21.1v233.4c0,8.7,4.7,16.7,12.2,21.1L1330.9,826
	c7.5,4.3,16.8,4.3,24.4,0l202.1-116.8c7.5-4.4,12.2-12.4,12.2-21.1V106.5c0-8.9-4.8-17-12.5-21.3L1436.9,18z M2110,529.2
	c7.5-4.4,12.1-12.4,12.1-21.1v-56.6c0-8.7-4.6-16.7-12.1-21.1l-200.8-116.6c-7.6-4.4-16.9-4.4-24.5,0l-202.1,116.6
	c-7.6,4.4-12.2,12.4-12.2,21.1v233.3c0,8.8,4.7,16.9,12.3,21.2l200.8,114.4c7.4,4.2,16.5,4.3,23.9,0.1l121.5-67.5
	c3.8-2.1,6.2-6.2,6.2-10.6c0-4.4-2.3-8.5-6.2-10.6l-203.3-116.7c-3.8-2.1-6.2-6.2-6.2-10.5v-73.2c0-4.4,2.3-8.4,6.1-10.6l63.3-36.5
	c3.8-2.2,8.4-2.2,12.2,0l63.3,36.5c3.8,2.1,6.1,6.2,6.1,10.5v57.5c0,4.3,2.3,8.4,6.1,10.6c3.8,2.1,8.4,2.1,12.2,0L2110,529.2z"/>
<path class="st0" d="M1893.9,518.3c1.4-0.8,3.2-0.8,4.7,0l38.8,22.4c1.5,0.8,2.3,2.4,2.3,4.1v44.8c0,1.7-0.9,3.2-2.3,4.1l-38.8,22.4
	c-1.4,0.8-3.2,0.8-4.7,0l-38.8-22.4c-1.5-0.8-2.4-2.4-2.4-4.1v-44.8c0-1.7,0.9-3.2,2.3-4.1L1893.9,518.3z"/>
<g transform="translate(-78.306 -164.016)">
	
		<linearGradient id="SVGID_1_" gradientUnits="userSpaceOnUse" x1="397.0467" y1="1296.2837" x2="398.3051" y2="1296.2837" gradientTransform="matrix(-154.5274 315.2347 315.2347 154.5274 -346316.0938 -324941.375)">
		<stop  offset="0.3" style="stop-color:#3E863D"/>
		<stop  offset="0.5" style="stop-color:#55934F"/>
		<stop  offset="0.8" style="stop-color:#5AAD45"/>
	</linearGradient>
	<path class="st2" d="M1152.6,625.8L773.3,439.9L578.9,836.6l379.3,185.9L1152.6,625.8z"/>
</g>
<g transform="translate(-78.306 -164.016)">
	
		<linearGradient id="SVGID_2_" gradientUnits="userSpaceOnUse" x1="396.358" y1="1299.0237" x2="397.1749" y2="1299.0237" gradientTransform="matrix(433.5859 -320.3684 -320.3684 -433.5859 244999.0938 691081.0625)">
		<stop  offset="0.57" style="stop-color:#3E863D"/>
		<stop  offset="0.72" style="stop-color:#619857"/>
		<stop  offset="1" style="stop-color:#76AC64"/>
	</linearGradient>
	<path class="st3" d="M554.2,680.8L822,1043.3l354.2-261.7L908.4,419.2L554.2,680.8z"/>
</g>
<g transform="translate(-78.306 -164.016)">
	
		<linearGradient id="SVGID_3_" gradientUnits="userSpaceOnUse" x1="395.9819" y1="1298.6927" x2="396.7226" y2="1298.6927" gradientTransform="matrix(395.4717 0 0 -395.4717 -155876.25 514327.0625)">
		<stop  offset="0.16" style="stop-color:#6BBF47"/>
		<stop  offset="0.38" style="stop-color:#79B461"/>
		<stop  offset="0.47" style="stop-color:#75AC64"/>
		<stop  offset="0.7" style="stop-color:#659E5A"/>
		<stop  offset="0.9" style="stop-color:#3E863D"/>
	</linearGradient>
	<path class="st4" d="M723.4,559.2v343.2h292.9V559.2H723.4z"/>
</g>
</svg>
