<?xml version="1.0" encoding="utf-8"?>
<!-- Generator: Adobe Illustrator 23.0.0, SVG Export Plug-In . SVG Version: 6.00 Build 0)  -->
<svg version="1.1" id="Capa_1" xmlns="http://www.w3.org/2000/svg" xmlns:xlink="http://www.w3.org/1999/xlink" x="0px" y="0px"
	 viewBox="0 0 512 512" style="enable-background:new 0 0 512 512;" xml:space="preserve">
<style type="text/css">
	.st0{fill:#76C16C;}
</style>
<g>
	<path class="st0" d="M346,15c0-8.3-6.7-15-15-15H61c-8.3,0-15,6.7-15,15v422c0,8.3,6.7,15,15,15h85.7c4.5,15.6,10.4,30.8,17.7,45.4
		l3.2,6.3c2.5,5.1,7.7,8.3,13.4,8.3h240c5.7,0,10.9-3.2,13.4-8.3c20.7-41.3,31.6-87.6,31.6-133.8V317c0-24.8-20.2-45-45-45
		c-5.8,0-11.4,1.1-16.6,3.1c-5.2-19.1-22.7-33.1-43.4-33.1c-5.3,0-10.3,0.9-15,2.6V15z M241,120c-24.8,0-45,20.2-45,45v138.5
		c-29.3,6-52.5,29.2-58.5,58.5H76V90h240v154.6c-4.7-1.7-9.7-2.6-15-2.6c-5.3,0-10.3,0.9-15,2.6V165C286,140.2,265.8,120,241,120z
		 M316,30v30H76V30H316z M76,422v-30h60.4c0.6,10,1.7,20.1,3.4,30H76z M361,272c8.3,0,15,6.7,15,15v30c0,8.3,6.7,15,15,15
		s15-6.7,15-15c0-8.3,6.7-15,15-15c8.3,0,15,6.7,15,15v52.9c0,38.5-8.4,77.1-24.4,112.1H190.3c-27.2-55.7-24.1-107.8-24.2-108.2
		c1.3-18.1,13.4-33.4,29.9-39.2v43.2c0,8.3,6.7,15,15,15s15-6.7,15-15V165c0-8.3,6.7-15,15-15s15,6.7,15,15v152c0,8.3,6.7,15,15,15
		s15-6.7,15-15v-30c0-8.3,6.7-15,15-15s15,6.7,15,15c0,10.3,0,19.6,0,30c0,8.3,6.7,15,15,15s15-6.7,15-15c0-10.4,0-19.7,0-30
		C346,278.7,352.7,272,361,272z"/>
</g>
</svg>
