<?xml version="1.0" encoding="utf-8"?>
<!-- Generator: Adobe Illustrator 23.0.0, SVG Export Plug-In . SVG Version: 6.00 Build 0)  -->
<svg version="1.1" id="Camada_1" xmlns="http://www.w3.org/2000/svg" xmlns:xlink="http://www.w3.org/1999/xlink" x="0px" y="0px"
	 viewBox="0 0 512 512" style="enable-background:new 0 0 512 512;" xml:space="preserve">
<style type="text/css">
	.st0{opacity:0.45;fill:#76C16C;}
	.st1{fill:#76C16C;}
</style>
<g>
	<path class="st0" d="M508,329.2V174.7c0-13.5-10.9-24.4-24.4-24.4H174.7c-13.5,0-24.4,10.9-24.4,24.4v154.5H508z M329.2,304.8
		h-16.3c-4.5,0-8.1-3.6-8.1-8.1s3.6-8.1,8.1-8.1h16.3c4.5,0,8.1,3.6,8.1,8.1S333.7,304.8,329.2,304.8z M264.1,256
		c-4.5,0-8.1-3.6-8.1-8.1c0-4.5,3.6-8.1,8.1-8.1h89.4c4.5,0,8.1,3.6,8.1,8.1c0,4.5-3.6,8.1-8.1,8.1H264.1z M402.3,304.8h-40.6
		c-4.5,0-8.1-3.6-8.1-8.1s3.6-8.1,8.1-8.1h40.6c4.5,0,8.1,3.6,8.1,8.1S406.8,304.8,402.3,304.8z M451.1,304.8h-16.3
		c-4.5,0-8.1-3.6-8.1-8.1s3.6-8.1,8.1-8.1h16.3c4.5,0,8.1,3.6,8.1,8.1S455.6,304.8,451.1,304.8z M451.1,256h-16.3
		c-4.5,0-8.1-3.6-8.1-8.1c0-4.5,3.6-8.1,8.1-8.1h16.3c4.5,0,8.1,3.6,8.1,8.1C459.2,252.4,455.6,256,451.1,256z M410.5,191h40.6
		c4.5,0,8.1,3.6,8.1,8.1s-3.6,8.1-8.1,8.1h-40.6c-4.5,0-8.1-3.6-8.1-8.1S406,191,410.5,191z M410.5,247.9c0,4.5-3.6,8.1-8.1,8.1
		h-16.3c-4.5,0-8.1-3.6-8.1-8.1c0-4.5,3.6-8.1,8.1-8.1h16.3C406.8,239.7,410.5,243.4,410.5,247.9z M337.3,191h40.6
		c4.5,0,8.1,3.6,8.1,8.1s-3.6,8.1-8.1,8.1h-40.6c-4.5,0-8.1-3.6-8.1-8.1S332.8,191,337.3,191z M288.5,191h16.3
		c4.5,0,8.1,3.6,8.1,8.1s-3.6,8.1-8.1,8.1h-16.3c-4.5,0-8.1-3.6-8.1-8.1S284,191,288.5,191z M215.4,191H256c4.5,0,8.1,3.6,8.1,8.1
		s-3.6,8.1-8.1,8.1h-40.6c-4.5,0-8.1-3.6-8.1-8.1S210.9,191,215.4,191z M207.2,239.7h24.4c4.5,0,8.1,3.6,8.1,8.1
		c0,4.5-3.6,8.1-8.1,8.1h-24.4c-4.5,0-8.1-3.6-8.1-8.1C199.1,243.4,202.7,239.7,207.2,239.7z M207.2,288.5h73.2
		c4.5,0,8.1,3.6,8.1,8.1s-3.6,8.1-8.1,8.1h-73.2c-4.5,0-8.1-3.6-8.1-8.1S202.7,288.5,207.2,288.5z M402.3,499.9
		c0,4.5-3.6,8.1-8.1,8.1H264.1c-4.5,0-8.1-3.6-8.1-8.1s3.6-8.1,8.1-8.1h9.9l16.3-65H368l16.3,65h9.9
		C398.7,491.7,402.3,495.4,402.3,499.9L402.3,499.9z M508,345.4v40.6c0,13.5-10.9,24.4-24.4,24.4H174.7c-13.5,0-24.4-10.9-24.4-24.4
		v-40.6H508z"/>
	<path class="st1" d="M386.1,4H28.4C14.9,4,4,14.9,4,28.4v308.9c0,13.5,10.9,24.4,24.4,24.4h357.7c13.5,0,24.4-10.9,24.4-24.4V28.4
		C410.5,14.9,399.5,4,386.1,4z M28.4,20.3h357.7c4.5,0,8.1,3.6,8.1,8.1v24.4H20.3V28.4C20.3,23.9,23.9,20.3,28.4,20.3z M386.1,345.4
		H28.4c-4.5,0-8.1-3.6-8.1-8.1V69h373.9v268.3C394.2,341.8,390.6,345.4,386.1,345.4z M140.5,139l-53,68.2l53,68.2
		c2.5,3.7,1.5,8.8-2.2,11.3c-3.4,2.3-8,1.7-10.7-1.4l-56.9-73.2c-2.3-2.9-2.3-7,0-9.9l56.9-73.2c2.5-3.7,7.6-4.7,11.3-2.2
		c3.7,2.5,4.7,7.6,2.2,11.3C140.9,138.5,140.7,138.8,140.5,139z M343.7,202.3c2.3,2.9,2.3,7,0,9.9c-59.1,74.1-56,76.3-63.3,76.3
		c-1.8,0-3.5-0.6-5-1.7c-3.5-2.7-4.2-7.8-1.5-11.4l53-68.2L274,139c-2.5-3.7-1.5-8.8,2.2-11.3c3.4-2.3,8-1.7,10.7,1.4L343.7,202.3z
		 M239.7,136.7L191,283c-1.4,4.3-6.1,6.6-10.3,5.1c-4.3-1.4-6.6-6.1-5.1-10.3l48.8-146.3c1.4-4.3,6.1-6.6,10.3-5.1
		C238.9,127.8,241.2,132.4,239.7,136.7L239.7,136.7z"/>
</g>
</svg>
